<?xml version="1.0" encoding="UTF-8" standalone="no"?>
<svg width="33px" height="33px" viewBox="0 0 33 33" version="1.1" xmlns="http://www.w3.org/2000/svg" xmlns:xlink="http://www.w3.org/1999/xlink">
    <!-- Generator: sketchtool 3.8.3 (29802) - http://www.bohemiancoding.com/sketch -->
    <title>017D16ED-D4E8-48B5-A73C-D502132CC28D</title>
    <desc>Created with sketchtool.</desc>
    <defs></defs>
    <g id="Symbols" stroke="none" stroke-width="1" fill="none" fill-rule="evenodd">
        <g id="C02-Footer" transform="translate(-927.000000, -77.000000)">
            <g id="fb" transform="translate(927.000000, 77.000000)">
                <rect id="Rectangle-20-Copy-2" fill="#FFFFFF" x="0" y="0" width="33" height="33"></rect>
                <rect id="Rectangle-23" fill="#e94b26" x="4.06849315" y="6.32876712" width="19.890411" height="18.9863014"></rect>
                <path d="M3.90992658,25.7671233 C3.24831778,25.7671233 2.71232877,25.2308017 2.71232877,24.5694506 L2.71232877,5.26608167 C2.71232877,4.6045622 3.24840197,4.06849315 3.90992658,4.06849315 L23.2134453,4.06849315 C23.8748015,4.06849315 24.4109589,4.6045622 24.4109589,5.26608167 L24.4109589,24.5694506 C24.4109589,25.0737474 24.0992435,25.5052672 23.6580602,25.6818384 C23.5205879,25.7368578 23.370545,25.7671233 23.2134453,25.7671233 L17.6840695,25.7671233 L17.6840695,17.3642179 L20.504537,17.3642179 L20.926862,14.0894565 L17.6840695,14.0894565 L17.6840695,11.9987283 C17.6840695,11.0506093 17.9473491,10.4044975 19.3069392,10.4044975 L21.0410311,10.4037398 L21.0410311,7.47476696 C20.7411265,7.43485857 19.7117515,7.34569615 18.5141537,7.34569615 C16.0139662,7.34569615 14.3022702,8.87181324 14.3022702,11.6744095 L14.3022702,14.0894565 L11.4745619,14.0894565 L11.4745619,17.3642179 L14.3022702,17.3642179 L14.3022702,25.7671233 L3.90992658,25.7671233 Z" id="Facebook" fill="#FFFFFF"></path>
            </g>
        </g>
    </g>
</svg>