<?xml version="1.0" encoding="UTF-8" standalone="no"?>
<svg width="33px" height="33px" viewBox="0 0 33 33" version="1.1" xmlns="http://www.w3.org/2000/svg" xmlns:xlink="http://www.w3.org/1999/xlink">
    <!-- Generator: sketchtool 3.8.3 (29802) - http://www.bohemiancoding.com/sketch -->
    <title>6A81A801-8E25-4185-83C3-DB14C1F2DF80</title>
    <desc>Created with sketchtool.</desc>
    <defs></defs>
    <g id="Symbols" stroke="none" stroke-width="1" fill="none" fill-rule="evenodd">
        <g id="C02-Footer" transform="translate(-977.000000, -77.000000)">
            <g id="twitter" transform="translate(977.000000, 77.000000)">
                <rect id="Rectangle-20-Copy" fill="#FFFFFF" x="0" y="0" width="33" height="33"></rect>
                <path d="M25.1232877,11.6892421 C24.4941172,11.975764 23.8167035,12.1695269 23.1061228,12.2561019 C23.8317795,11.8108593 24.3885854,11.1048612 24.6509073,10.2638475 C23.9714835,10.6761091 23.2207002,10.9760295 22.4186585,11.1368115 C21.7794373,10.4369973 20.8658335,10 19.8547384,10 C17.9159685,10 16.3430423,11.6129737 16.3430423,13.6021362 C16.3430423,13.8845354 16.3731942,14.1586894 16.4334981,14.4225369 C13.5137851,14.2720614 10.9257434,12.8394521 9.19200676,10.6575573 C8.88948228,11.1914362 8.71661115,11.8108593 8.71661115,12.4704779 C8.71661115,13.7196307 9.33673608,14.8224307 10.2794868,15.4686508 C9.70458977,15.4511297 9.16185482,15.2872557 8.68746427,15.0192856 L8.68746427,15.0636037 C8.68746427,16.8095318 9.89856726,18.2658461 11.5066708,18.5956554 C11.2121869,18.6801691 10.9016219,18.7224259 10.5810062,18.7224259 C10.3548666,18.7224259 10.1337524,18.7007821 9.91967362,18.6585253 C10.3669274,20.0890733 11.6634609,21.1310646 13.2012099,21.1588922 C11.9991525,22.1256458 10.4835149,22.7017815 8.83822398,22.7017815 C8.55479573,22.7017815 8.27438267,22.685291 8,22.6523101 C9.55483513,23.6726577 11.4021441,24.2694064 13.3851368,24.2694064 C19.8477029,24.2694064 23.3805054,18.7811732 23.3805054,14.0205818 C23.3805054,13.8639223 23.3774902,13.7072629 23.3714599,13.5536954 C24.0579191,13.0455829 24.6539224,12.4117307 25.1232877,11.6892421" id="Twitter" fill="#e94b26"></path>
            </g>
        </g>
    </g>
</svg>