<?xml version="1.0" encoding="UTF-8" standalone="no"?>
<svg width="33px" height="33px" viewBox="0 0 33 33" version="1.1" xmlns="http://www.w3.org/2000/svg" xmlns:xlink="http://www.w3.org/1999/xlink">
    <!-- Generator: sketchtool 3.8.3 (29802) - http://www.bohemiancoding.com/sketch -->
    <title>46478179-5627-4E2C-A71C-73CDB93B03BF</title>
    <desc>Created with sketchtool.</desc>
    <defs></defs>
    <g id="Symbols" stroke="none" stroke-width="1" fill="none" fill-rule="evenodd">
        <g id="C02-Footer" transform="translate(-1077.000000, -77.000000)">
            <g id="blog" transform="translate(1077.000000, 77.000000)">
                <rect id="Rectangle-20" fill="#FFFFFF" x="0" y="0" width="33" height="33"></rect>
                <path d="M8,16.500025 C8,19.8646514 9.95512794,22.7723729 12.7905947,24.1499943 L8.7358294,13.0408299 C8.26457981,14.0975553 8,15.2674443 8,16.500025 Z M22.238538,16.0712782 C22.238538,15.0203969 21.8607945,14.2930681 21.5377734,13.7272498 C21.1069015,13.0264852 20.7025937,12.4335714 20.7025937,11.7333381 C20.7025937,10.9518182 21.2949763,10.2244893 22.1301559,10.2244893 C22.1678771,10.2244893 22.2034732,10.2292709 22.2401319,10.231396 C20.7280954,8.84580535 18.7129323,8 16.5001312,8 C13.5302494,8 10.9179222,9.52372471 9.39791648,11.8310945 C9.59767955,11.8374699 9.78575436,11.8411889 9.94513979,11.8411889 C10.8339792,11.8411889 12.210538,11.7333381 12.210538,11.7333381 C12.6685055,11.7062425 12.7226966,12.3799116 12.2647291,12.4335714 C12.2647291,12.4335714 11.8041052,12.4877624 11.2919467,12.5148579 L14.3872117,21.722023 L16.247771,16.1430016 L14.9238093,12.5148579 C14.4658419,12.4877624 14.0317822,12.4335714 14.0317822,12.4335714 C13.5738147,12.4064759 13.6274745,11.7062425 14.0859733,11.7333381 C14.0859733,11.7333381 15.4896276,11.8411889 16.3248073,11.8411889 C17.2136467,11.8411889 18.5902055,11.7333381 18.5902055,11.7333381 C19.0487043,11.7062425 19.102364,12.3799116 18.6443966,12.4335714 C18.6443966,12.4335714 18.1832414,12.4877624 17.6716142,12.5148579 L20.7435027,21.6518934 L21.5919644,18.819083 C21.9585509,17.6428185 22.238538,16.798607 22.238538,16.0712782 Z M23.9592631,12.4220425 C23.9959218,12.6929977 24.0166419,12.9830792 24.0166419,13.2960059 C24.0166419,14.1582811 23.8551313,15.1278758 23.3700683,16.3407989 L20.7736797,23.8473214 C23.3010013,22.3740688 25.0005813,19.6358271 25.0005813,16.5001844 C25.0005813,15.0221502 24.6228378,13.6328405 23.9592631,12.4220425 Z M16.6494223,17.2436111 L14.0987241,24.6545024 C14.8605865,24.8787045 15.6660142,25.0009 16.5001312,25.0009 C17.4899148,25.0009 18.4393206,24.8298263 19.3228472,24.5190247 C19.3005332,24.4823661 19.2792819,24.4441136 19.2622807,24.4021421 L16.6494223,17.2436111 Z" id="Wordpress" fill="#e94b26"></path>
            </g>
        </g>
    </g>
</svg>