<?xml version="1.0" encoding="UTF-8" standalone="no"?>
<svg width="33px" height="33px" viewBox="0 0 33 33" version="1.1" xmlns="http://www.w3.org/2000/svg" xmlns:xlink="http://www.w3.org/1999/xlink">
    <!-- Generator: sketchtool 3.8.3 (29802) - http://www.bohemiancoding.com/sketch -->
    <title>DCB273E8-FF8B-40EB-A985-B09D87986453</title>
    <desc>Created with sketchtool.</desc>
    <defs></defs>
    <g id="Symbols" stroke="none" stroke-width="1" fill="none" fill-rule="evenodd">
        <g id="C02-Footer" transform="translate(-1027.000000, -77.000000)">
            <g id="linkedin" transform="translate(1027.000000, 77.000000)">
                <rect id="Rectangle-20" fill="#FFFFFF" x="0" y="0" width="33" height="33"></rect>
                <path d="M25.8465753,24.3150685 L22.1232524,24.3150685 L22.1232524,18.9312095 C22.1232524,17.5219918 21.5408332,16.5599579 20.2601052,16.5599579 C19.2804919,16.5599579 18.735712,17.2091591 18.4821417,17.8348244 C18.3870528,18.059397 18.4019105,18.3722296 18.4019105,18.6850622 L18.4019105,24.3150685 L14.7132553,24.3150685 C14.7132553,24.3150685 14.7607998,14.7780869 14.7132553,13.9111778 L18.4019105,13.9111778 L18.4019105,15.5439875 C18.6198224,14.8300623 19.798528,13.8111498 21.6795044,13.8111498 C24.0131434,13.8111498 25.8465753,15.3076468 25.8465753,18.5301169 L25.8465753,24.3150685 L25.8465753,24.3150685 Z M10.9829988,12.6098333 L10.9592266,12.6098333 C9.77061592,12.6098333 9,11.8145128 9,10.8063877 C9,9.77864919 9.79339763,9 11.0057805,9 C12.2171729,9 12.9620356,9.77668786 12.9858078,10.8034457 C12.9858078,11.8115708 12.2171729,12.6098333 10.9829988,12.6098333 L10.9829988,12.6098333 L10.9829988,12.6098333 Z M9.42492832,13.9111778 L12.7084653,13.9111778 L12.7084653,24.3150685 L9.42492832,24.3150685 L9.42492832,13.9111778 L9.42492832,13.9111778 Z" id="LinkedIn" fill="#e94b26"></path>
            </g>
        </g>
    </g>
</svg>